<?xml version="1.0" encoding="UTF-8"?>
<svg xmlns="http://www.w3.org/2000/svg" xmlns:xlink="http://www.w3.org/1999/xlink" width="708.75pt" height="567.000005pt" viewBox="0 0 708.75 567.000005" version="1.2">
<defs>
<clipPath id="clip1">
  <path d="M 14.3125 0 L 694.351562 0 L 694.351562 566 L 14.3125 566 Z M 14.3125 0 "/>
</clipPath>
</defs>
<g id="surface1">
<g clip-path="url(#clip1)" clip-rule="nonzero">
<path style=" stroke:none;fill-rule:nonzero;fill:rgb(0%,0%,0%);fill-opacity:1;" d="M 354.339844 0 C 268.554688 0 167.40625 68.597656 137.128906 194.128906 C 125.378906 186.910156 110.683594 181.210938 92.675781 181.210938 C 51.015625 181.210938 14.65625 218.984375 14.65625 271.816406 C 14.65625 303.3125 30.5 333.90625 50.789062 359.5 C 68.960938 382.425781 90.445312 402.84375 118.019531 406.882812 C 150.902344 494.179688 244.195312 566.285156 354.339844 566.285156 C 464.484375 566.285156 557.773438 494.179688 590.65625 406.882812 C 618.234375 402.84375 639.714844 382.425781 657.886719 359.5 C 678.175781 333.90625 694.023438 303.3125 694.023438 271.816406 C 694.023438 218.984375 657.660156 181.210938 616 181.210938 C 597.996094 181.210938 583.300781 186.910156 571.550781 194.128906 C 541.273438 68.597656 440.121094 0 354.339844 0 Z M 286.402344 203.863281 C 313.621094 203.863281 337.738281 213.0625 354.339844 227.308594 C 370.9375 213.0625 395.054688 203.863281 422.273438 203.863281 C 472.300781 203.863281 512.855469 234.28125 512.855469 271.816406 C 512.855469 287.242188 505.761719 301.300781 494.238281 312.695312 C 520.03125 332.085938 535.503906 356.855469 535.503906 383.921875 C 535.503906 445.851562 454.386719 520.980469 354.339844 520.980469 C 254.289062 520.980469 173.175781 445.851562 173.175781 383.921875 C 173.175781 356.855469 188.648438 332.085938 214.441406 312.695312 C 202.914062 301.300781 195.820312 287.242188 195.820312 271.816406 C 195.820312 234.28125 236.378906 203.863281 286.402344 203.863281 Z M 92.675781 226.511719 C 111.800781 226.511719 124.519531 240.789062 128.988281 246.644531 C 128.402344 254.886719 127.882812 263.1875 127.882812 271.816406 C 127.882812 292.226562 105.238281 297.253906 105.238281 339.769531 C 105.238281 343.253906 105.652344 346.730469 105.855469 350.210938 C 99.332031 345.214844 92.441406 339.15625 86.261719 331.363281 C 70.640625 311.65625 59.945312 285.621094 59.945312 271.816406 C 59.945312 237.078125 76.046875 226.511719 92.675781 226.511719 Z M 616 226.511719 C 632.628906 226.511719 648.730469 237.078125 648.730469 271.816406 C 648.730469 285.621094 638.035156 311.65625 622.414062 331.363281 C 616.234375 339.15625 609.347656 345.214844 602.820312 350.210938 C 603.027344 346.730469 603.441406 343.253906 603.441406 339.769531 C 603.441406 297.253906 580.792969 292.226562 580.792969 271.816406 C 580.792969 263.1875 580.277344 254.886719 579.6875 246.644531 C 584.160156 240.789062 596.878906 226.511719 616 226.511719 Z M 286.402344 249.164062 C 285.660156 249.164062 284.921875 249.199219 284.183594 249.273438 C 283.445312 249.347656 282.710938 249.457031 281.984375 249.601562 C 281.257812 249.746094 280.539062 249.925781 279.828125 250.140625 C 279.117188 250.355469 278.421875 250.605469 277.734375 250.890625 C 277.050781 251.171875 276.382812 251.488281 275.726562 251.839844 C 275.074219 252.1875 274.4375 252.570312 273.820312 252.980469 C 273.203125 253.394531 272.609375 253.835938 272.035156 254.304688 C 271.460938 254.777344 270.914062 255.273438 270.390625 255.800781 C 269.863281 256.324219 269.367188 256.871094 268.898438 257.445312 C 268.425781 258.019531 267.984375 258.613281 267.574219 259.230469 C 267.160156 259.847656 266.78125 260.484375 266.429688 261.136719 C 266.082031 261.792969 265.765625 262.460938 265.480469 263.148438 C 265.195312 263.832031 264.945312 264.53125 264.730469 265.242188 C 264.515625 265.949219 264.335938 266.667969 264.191406 267.398438 C 264.046875 268.125 263.9375 268.859375 263.867188 269.597656 C 263.792969 270.335938 263.757812 271.074219 263.757812 271.816406 C 263.757812 272.558594 263.792969 273.296875 263.867188 274.035156 C 263.9375 274.773438 264.046875 275.507812 264.191406 276.234375 C 264.335938 276.960938 264.515625 277.679688 264.730469 278.390625 C 264.945312 279.101562 265.195312 279.800781 265.480469 280.484375 C 265.765625 281.167969 266.082031 281.839844 266.429688 282.492188 C 266.78125 283.148438 267.160156 283.785156 267.574219 284.398438 C 267.984375 285.015625 268.425781 285.613281 268.898438 286.1875 C 269.367188 286.757812 269.863281 287.308594 270.390625 287.832031 C 270.914062 288.359375 271.460938 288.855469 272.035156 289.324219 C 272.609375 289.796875 273.203125 290.238281 273.820312 290.648438 C 274.4375 291.0625 275.074219 291.441406 275.726562 291.792969 C 276.382812 292.140625 277.050781 292.460938 277.734375 292.742188 C 278.421875 293.027344 279.117188 293.277344 279.828125 293.492188 C 280.539062 293.707031 281.257812 293.886719 281.984375 294.03125 C 282.710938 294.175781 283.445312 294.285156 284.183594 294.359375 C 284.921875 294.429688 285.660156 294.46875 286.402344 294.46875 C 287.144531 294.46875 287.882812 294.429688 288.621094 294.359375 C 289.359375 294.285156 290.09375 294.175781 290.820312 294.03125 C 291.546875 293.886719 292.265625 293.707031 292.976562 293.492188 C 293.683594 293.277344 294.382812 293.027344 295.066406 292.742188 C 295.753906 292.460938 296.421875 292.140625 297.078125 291.792969 C 297.730469 291.441406 298.367188 291.0625 298.984375 290.648438 C 299.601562 290.238281 300.195312 289.796875 300.769531 289.324219 C 301.339844 288.855469 301.890625 288.359375 302.414062 287.832031 C 302.9375 287.308594 303.4375 286.757812 303.90625 286.1875 C 304.378906 285.613281 304.820312 285.015625 305.230469 284.398438 C 305.644531 283.785156 306.023438 283.148438 306.375 282.492188 C 306.722656 281.839844 307.039062 281.167969 307.324219 280.484375 C 307.609375 279.800781 307.855469 279.101562 308.074219 278.390625 C 308.289062 277.679688 308.46875 276.960938 308.613281 276.234375 C 308.757812 275.507812 308.867188 274.773438 308.9375 274.035156 C 309.011719 273.296875 309.046875 272.558594 309.046875 271.816406 C 309.046875 271.074219 309.011719 270.335938 308.9375 269.597656 C 308.867188 268.859375 308.757812 268.125 308.613281 267.398438 C 308.46875 266.667969 308.289062 265.949219 308.074219 265.242188 C 307.855469 264.53125 307.609375 263.832031 307.324219 263.148438 C 307.039062 262.460938 306.722656 261.792969 306.375 261.136719 C 306.023438 260.484375 305.644531 259.847656 305.230469 259.230469 C 304.820312 258.613281 304.378906 258.019531 303.90625 257.445312 C 303.4375 256.871094 302.9375 256.324219 302.414062 255.800781 C 301.890625 255.273438 301.339844 254.777344 300.769531 254.304688 C 300.195312 253.835938 299.601562 253.394531 298.984375 252.980469 C 298.367188 252.570312 297.730469 252.1875 297.078125 251.839844 C 296.421875 251.488281 295.753906 251.171875 295.066406 250.890625 C 294.382812 250.605469 293.683594 250.355469 292.976562 250.140625 C 292.265625 249.925781 291.546875 249.746094 290.820312 249.601562 C 290.09375 249.457031 289.359375 249.347656 288.621094 249.273438 C 287.882812 249.199219 287.144531 249.164062 286.402344 249.164062 Z M 422.273438 249.164062 C 421.535156 249.164062 420.792969 249.199219 420.054688 249.273438 C 419.316406 249.347656 418.585938 249.457031 417.855469 249.601562 C 417.128906 249.746094 416.410156 249.925781 415.703125 250.140625 C 414.992188 250.355469 414.292969 250.605469 413.609375 250.890625 C 412.925781 251.171875 412.253906 251.488281 411.601562 251.839844 C 410.945312 252.1875 410.3125 252.570312 409.695312 252.980469 C 409.078125 253.394531 408.480469 253.835938 407.910156 254.304688 C 407.335938 254.777344 406.785156 255.273438 406.261719 255.800781 C 405.738281 256.324219 405.242188 256.871094 404.769531 257.445312 C 404.300781 258.019531 403.859375 258.613281 403.445312 259.230469 C 403.035156 259.847656 402.652344 260.484375 402.304688 261.136719 C 401.953125 261.792969 401.636719 262.460938 401.351562 263.148438 C 401.070312 263.832031 400.820312 264.53125 400.605469 265.242188 C 400.390625 265.949219 400.210938 266.667969 400.066406 267.398438 C 399.921875 268.125 399.8125 268.859375 399.738281 269.597656 C 399.667969 270.335938 399.628906 271.074219 399.628906 271.816406 C 399.628906 272.558594 399.667969 273.296875 399.738281 274.035156 C 399.8125 274.773438 399.921875 275.507812 400.066406 276.234375 C 400.210938 276.960938 400.390625 277.679688 400.605469 278.390625 C 400.820312 279.101562 401.070312 279.800781 401.351562 280.484375 C 401.636719 281.167969 401.953125 281.839844 402.304688 282.492188 C 402.652344 283.148438 403.035156 283.785156 403.445312 284.398438 C 403.859375 285.015625 404.300781 285.613281 404.769531 286.1875 C 405.242188 286.757812 405.738281 287.308594 406.261719 287.832031 C 406.785156 288.359375 407.335938 288.855469 407.910156 289.324219 C 408.480469 289.796875 409.078125 290.238281 409.695312 290.648438 C 410.3125 291.0625 410.945312 291.441406 411.601562 291.792969 C 412.253906 292.140625 412.925781 292.460938 413.609375 292.742188 C 414.292969 293.027344 414.992188 293.277344 415.703125 293.492188 C 416.410156 293.707031 417.128906 293.886719 417.855469 294.03125 C 418.585938 294.175781 419.316406 294.285156 420.054688 294.359375 C 420.792969 294.429688 421.535156 294.46875 422.273438 294.46875 C 423.015625 294.46875 423.757812 294.429688 424.496094 294.359375 C 425.234375 294.285156 425.964844 294.175781 426.691406 294.03125 C 427.421875 293.886719 428.140625 293.707031 428.847656 293.492188 C 429.558594 293.277344 430.257812 293.027344 430.941406 292.742188 C 431.625 292.460938 432.296875 292.140625 432.949219 291.792969 C 433.605469 291.441406 434.238281 291.0625 434.855469 290.648438 C 435.472656 290.238281 436.066406 289.796875 436.640625 289.324219 C 437.214844 288.855469 437.761719 288.359375 438.289062 287.832031 C 438.8125 287.308594 439.308594 286.757812 439.78125 286.1875 C 440.25 285.613281 440.691406 285.015625 441.105469 284.398438 C 441.515625 283.785156 441.898438 283.148438 442.246094 282.492188 C 442.597656 281.839844 442.914062 281.167969 443.195312 280.484375 C 443.480469 279.800781 443.730469 279.101562 443.945312 278.390625 C 444.160156 277.679688 444.339844 276.960938 444.484375 276.234375 C 444.628906 275.507812 444.738281 274.773438 444.8125 274.035156 C 444.882812 273.296875 444.921875 272.558594 444.921875 271.816406 C 444.921875 271.074219 444.882812 270.335938 444.8125 269.597656 C 444.738281 268.859375 444.628906 268.125 444.484375 267.398438 C 444.339844 266.667969 444.160156 265.949219 443.945312 265.242188 C 443.730469 264.53125 443.480469 263.832031 443.195312 263.148438 C 442.914062 262.460938 442.597656 261.792969 442.246094 261.136719 C 441.898438 260.484375 441.515625 259.847656 441.105469 259.230469 C 440.691406 258.613281 440.25 258.019531 439.78125 257.445312 C 439.308594 256.871094 438.8125 256.324219 438.289062 255.800781 C 437.761719 255.273438 437.214844 254.777344 436.640625 254.304688 C 436.066406 253.835938 435.472656 253.394531 434.855469 252.980469 C 434.238281 252.570312 433.605469 252.1875 432.949219 251.839844 C 432.296875 251.488281 431.625 251.171875 430.941406 250.890625 C 430.257812 250.605469 429.558594 250.355469 428.847656 250.140625 C 428.140625 249.925781 427.421875 249.746094 426.691406 249.601562 C 425.964844 249.457031 425.234375 249.347656 424.496094 249.273438 C 423.757812 249.199219 423.015625 249.164062 422.273438 249.164062 Z M 343.015625 328.445312 C 324.265625 328.445312 309.046875 343.667969 309.046875 362.421875 L 399.628906 362.421875 C 399.628906 343.667969 384.410156 328.445312 365.660156 328.445312 C 361.671875 328.445312 357.894531 329.257812 354.339844 330.523438 C 350.78125 329.257812 347.003906 328.445312 343.015625 328.445312 Z M 343.015625 328.445312 "/>
</g>
</g>
</svg>
